<svg id="visual" viewBox="0 0 540 960" width="540" height="960" xmlns="http://www.w3.org/2000/svg" xmlns:xlink="http://www.w3.org/1999/xlink" version="1.1"><path d="M0 87L30 87L30 97L60 97L60 39L90 39L90 155L120 155L120 145L150 145L150 174L180 174L180 30L210 30L210 87L240 87L240 49L270 49L270 59L300 59L300 78L330 78L330 39L360 39L360 68L390 68L390 68L420 68L420 126L450 126L450 87L480 87L480 68L510 68L510 30L540 30L540 116L540 0L540 0L510 0L510 0L480 0L480 0L450 0L450 0L420 0L420 0L390 0L390 0L360 0L360 0L330 0L330 0L300 0L300 0L270 0L270 0L240 0L240 0L210 0L210 0L180 0L180 0L150 0L150 0L120 0L120 0L90 0L90 0L60 0L60 0L30 0L30 0L0 0Z" fill="#767883"></path><path d="M0 251L30 251L30 222L60 222L60 356L90 356L90 260L120 260L120 385L150 385L150 519L180 519L180 222L210 222L210 414L240 414L240 491L270 491L270 375L300 375L300 193L330 193L330 193L360 193L360 174L390 174L390 251L420 251L420 251L450 251L450 433L480 433L480 203L510 203L510 356L540 356L540 404L540 114L540 28L510 28L510 66L480 66L480 85L450 85L450 124L420 124L420 66L390 66L390 66L360 66L360 37L330 37L330 76L300 76L300 57L270 57L270 47L240 47L240 85L210 85L210 28L180 28L180 172L150 172L150 143L120 143L120 153L90 153L90 37L60 37L60 95L30 95L30 85L0 85Z" fill="#868891"></path><path d="M0 385L30 385L30 375L60 375L60 529L90 529L90 452L120 452L120 443L150 443L150 606L180 606L180 471L210 471L210 587L240 587L240 577L270 577L270 548L300 548L300 347L330 347L330 433L360 433L360 337L390 337L390 385L420 385L420 356L450 356L450 577L480 577L480 270L510 270L510 462L540 462L540 471L540 402L540 354L510 354L510 201L480 201L480 431L450 431L450 249L420 249L420 249L390 249L390 172L360 172L360 191L330 191L330 191L300 191L300 373L270 373L270 489L240 489L240 412L210 412L210 220L180 220L180 517L150 517L150 383L120 383L120 258L90 258L90 354L60 354L60 220L30 220L30 249L0 249Z" fill="#9698a0"></path><path d="M0 491L30 491L30 462L60 462L60 625L90 625L90 558L120 558L120 529L150 529L150 625L180 625L180 510L210 510L210 663L240 663L240 596L270 596L270 635L300 635L300 423L330 423L330 481L360 481L360 356L390 356L390 481L420 481L420 433L450 433L450 606L480 606L480 308L510 308L510 558L540 558L540 529L540 469L540 460L510 460L510 268L480 268L480 575L450 575L450 354L420 354L420 383L390 383L390 335L360 335L360 431L330 431L330 345L300 345L300 546L270 546L270 575L240 575L240 585L210 585L210 469L180 469L180 604L150 604L150 441L120 441L120 450L90 450L90 527L60 527L60 373L30 373L30 383L0 383Z" fill="#a7a8af"></path><path d="M0 596L30 596L30 491L60 491L60 683L90 683L90 606L120 606L120 625L150 625L150 663L180 663L180 606L210 606L210 692L240 692L240 673L270 673L270 702L300 702L300 471L330 471L330 558L360 558L360 395L390 395L390 519L420 519L420 529L450 529L450 673L480 673L480 337L510 337L510 663L540 663L540 625L540 527L540 556L510 556L510 306L480 306L480 604L450 604L450 431L420 431L420 479L390 479L390 354L360 354L360 479L330 479L330 421L300 421L300 633L270 633L270 594L240 594L240 661L210 661L210 508L180 508L180 623L150 623L150 527L120 527L120 556L90 556L90 623L60 623L60 460L30 460L30 489L0 489Z" fill="#b7b8bd"></path><path d="M0 884L30 884L30 769L60 769L60 779L90 779L90 894L120 894L120 779L150 779L150 836L180 836L180 836L210 836L210 769L240 769L240 779L270 779L270 827L300 827L300 827L330 827L330 884L360 884L360 702L390 702L390 798L420 798L420 798L450 798L450 788L480 788L480 798L510 798L510 865L540 865L540 731L540 623L540 661L510 661L510 335L480 335L480 671L450 671L450 527L420 527L420 517L390 517L390 393L360 393L360 556L330 556L330 469L300 469L300 700L270 700L270 671L240 671L240 690L210 690L210 604L180 604L180 661L150 661L150 623L120 623L120 604L90 604L90 681L60 681L60 489L30 489L30 594L0 594Z" fill="#c8c9cc"></path><path d="M0 913L30 913L30 855L60 855L60 855L90 855L90 913L120 913L120 884L150 884L150 875L180 875L180 884L210 884L210 817L240 817L240 894L270 894L270 846L300 846L300 894L330 894L330 903L360 903L360 807L390 807L390 913L420 913L420 865L450 865L450 846L480 846L480 855L510 855L510 932L540 932L540 827L540 729L540 863L510 863L510 796L480 796L480 786L450 786L450 796L420 796L420 796L390 796L390 700L360 700L360 882L330 882L330 825L300 825L300 825L270 825L270 777L240 777L240 767L210 767L210 834L180 834L180 834L150 834L150 777L120 777L120 892L90 892L90 777L60 777L60 767L30 767L30 882L0 882Z" fill="#dadadc"></path><path d="M0 961L30 961L30 961L60 961L60 961L90 961L90 961L120 961L120 961L150 961L150 961L180 961L180 961L210 961L210 961L240 961L240 961L270 961L270 961L300 961L300 961L330 961L330 961L360 961L360 961L390 961L390 961L420 961L420 961L450 961L450 961L480 961L480 961L510 961L510 961L540 961L540 961L540 825L540 930L510 930L510 853L480 853L480 844L450 844L450 863L420 863L420 911L390 911L390 805L360 805L360 901L330 901L330 892L300 892L300 844L270 844L270 892L240 892L240 815L210 815L210 882L180 882L180 873L150 873L150 882L120 882L120 911L90 911L90 853L60 853L60 853L30 853L30 911L0 911Z" fill="#ebebeb"></path></svg>